<svg width="38" height="38" viewBox="0 0 38 38" fill="none" xmlns="http://www.w3.org/2000/svg">
<g clip-path="url(#clip0_1069_8076)">
<rect x="-1" width="39" height="40" rx="10" fill="#A5A5A5"/>
<path d="M17.8554 8.22118C18.2346 7.92627 18.7654 7.92627 19.1446 8.22118L28.5946 15.5712C28.8504 15.7701 29 16.076 29 16.4V28.475C29 29.3448 28.2948 30.05 27.425 30.05H21.65V21.65C21.65 21.0701 21.1799 20.6 20.6 20.6H16.4C15.8201 20.6 15.35 21.0701 15.35 21.65V30.05H9.575C8.70515 30.05 8 29.3448 8 28.475V16.4C8 16.076 8.14959 15.7701 8.40536 15.5712L17.8554 8.22118Z" fill="white"/>
</g>
<defs>
<clipPath id="clip0_1069_8076">
<rect width="38" height="38" rx="10" fill="white"/>
</clipPath>
</defs>
</svg>
