<svg width="38" height="38" viewBox="0 0 38 38" fill="none" xmlns="http://www.w3.org/2000/svg">
<g clip-path="url(#clip0_1069_8091)">
<rect x="-1" width="39" height="40" rx="10" fill="#A5A5A5"/>
<path fill-rule="evenodd" clip-rule="evenodd" d="M17.3263 8C15.5326 8 14.0784 9.45416 14.0784 11.2479V12.331C13.4232 12.333 12.8454 12.344 12.3598 12.4053C11.722 12.4859 11.1089 12.6665 10.5804 13.1249C10.0519 13.5832 9.78637 14.1647 9.61643 14.7847C9.45859 15.3604 9.35547 16.0826 9.23674 16.914L9.22756 16.9783L8.28863 23.5507C8.13365 24.6352 8.00135 25.561 8.00001 26.3061C7.99858 27.0992 8.14107 27.8793 8.70813 28.5331C9.2752 29.1869 10.0273 29.4383 10.8126 29.549C11.5504 29.6531 12.4856 29.6531 13.5811 29.653H23.237C24.3325 29.6531 25.2677 29.6531 26.0054 29.549C26.7908 29.4383 27.5429 29.1869 28.11 28.5331C28.6771 27.8793 28.8195 27.0992 28.818 26.3061C28.8167 25.561 28.6844 24.6352 28.5294 23.5506L27.5813 16.914C27.4627 16.0826 27.3595 15.3604 27.2016 14.7847C27.0318 14.1647 26.7662 13.5832 26.2377 13.1249C25.7092 12.6665 25.0961 12.4859 24.4583 12.4053C23.9726 12.344 23.3948 12.333 22.7396 12.331V11.2479C22.7396 9.45416 21.2855 8 19.4916 8H17.3263ZM20.5743 12.3306V11.2479C20.5743 10.65 20.0896 10.1653 19.4916 10.1653H17.3263C16.7284 10.1653 16.2437 10.65 16.2437 11.2479V12.3306H20.5743ZM15.1611 14.4959C15.759 14.4959 16.2437 14.9806 16.2437 15.5785V17.7438C16.2437 18.3418 15.759 18.8265 15.1611 18.8265C14.5631 18.8265 14.0784 18.3418 14.0784 17.7438V15.5785C14.0784 14.9806 14.5631 14.4959 15.1611 14.4959ZM22.7396 15.5785C22.7396 14.9806 22.2549 14.4959 21.6569 14.4959C21.059 14.4959 20.5743 14.9806 20.5743 15.5785V17.7438C20.5743 18.3418 21.059 18.8265 21.6569 18.8265C22.2549 18.8265 22.7396 18.3418 22.7396 17.7438V15.5785Z" fill="white"/>
</g>
<defs>
<clipPath id="clip0_1069_8091">
<rect width="38" height="38" rx="10" fill="white"/>
</clipPath>
</defs>
</svg>
