<svg width="38" height="38" viewBox="0 0 38 38" fill="none" xmlns="http://www.w3.org/2000/svg">
<g clip-path="url(#clip0_1069_8083)">
<rect x="-1" width="39" height="40" rx="10" fill="#A5A5A5"/>
<path d="M16.7749 23.2468L13.2091 26.8127L12.0012 25.6047L15.567 22.0389L16.7749 23.2468ZM17.2512 23.7231L13.6854 27.2889L14.8933 28.4969L18.4592 24.931L17.2512 23.7231ZM14.2607 20.732C14.1334 20.6046 13.9643 20.5346 13.7844 20.5346C13.6046 20.5346 13.4355 20.6046 13.3081 20.732L10.6949 23.3452C10.4315 23.6086 10.4315 24.035 10.6949 24.2978L11.5249 25.1278L15.0907 21.5619L14.2607 20.732ZM19.9635 26.7136C19.9635 26.5337 19.8934 26.3646 19.7661 26.2373L18.9361 25.4073L15.3703 28.9732L16.1996 29.8025C16.4623 30.0659 16.8888 30.0659 17.1522 29.8025L19.7661 27.1899C19.8934 27.0626 19.9635 26.8935 19.9635 26.7136ZM28.8029 14.7846L25.7134 11.6951C25.45 11.4317 25.0236 11.4317 24.7608 11.6951L21.8687 14.5873H20.2902C19.754 14.5873 19.24 14.8001 18.8613 15.1794L15.8877 18.1531C15.625 18.4158 15.625 18.8429 15.8877 19.1057L16.0036 19.2215C16.1309 19.3489 16.3 19.4189 16.4799 19.4189C16.6597 19.4189 16.8288 19.3489 16.9562 19.2215L18.6161 17.5616C19.4057 16.772 20.685 16.772 21.4746 17.5616L25.2371 21.3241L25.9108 21.9978V18.6294L28.8029 15.7372C29.0657 15.4745 29.0657 15.0474 28.8029 14.7846ZM20.9983 18.0379C20.4721 17.5111 19.6186 17.5111 19.0924 18.0372L17.4325 19.6978C17.169 19.9613 16.8248 20.0926 16.4799 20.0926C16.1349 20.0926 15.79 19.9613 15.5273 19.6978L15.4114 19.582C14.8852 19.0558 14.8852 18.2029 15.4114 17.6768L18.5003 14.5873H15.1318L12.2397 11.6951C11.9763 11.4317 11.5498 11.4317 11.2871 11.6951L8.19756 14.7846C7.93415 15.0481 7.93415 15.4745 8.19756 15.7372L11.0897 18.6294V21.9978L12.8319 20.2557C13.0946 19.9929 13.4395 19.8609 13.7844 19.8609C14.1294 19.8609 14.4743 19.9922 14.737 20.2557L20.2424 25.761C20.5772 26.0958 20.6971 26.5634 20.6055 26.9952L22.1072 28.4969L23.3151 27.2889L20.8582 24.832C20.7268 24.7006 20.7268 24.4871 20.8582 24.3557C20.9895 24.2243 21.2031 24.2243 21.3345 24.3557L23.7907 26.812L24.9986 25.6041L22.5424 23.1478C22.411 23.0164 22.411 22.8029 22.5424 22.6715C22.6737 22.5401 22.8873 22.5401 23.0187 22.6715L25.4749 25.1278L26.3022 24.3005C26.565 24.0377 26.5656 23.6113 26.3022 23.3479L20.9983 18.0379ZM18.9846 28.924L19.8557 29.7951C20.1191 30.0585 20.5456 30.0585 20.8083 29.7951L21.5898 29.0129L20.2417 27.6662L18.9846 28.924Z" fill="white"/>
</g>
<defs>
<clipPath id="clip0_1069_8083">
<rect width="38" height="38" rx="10" fill="white"/>
</clipPath>
</defs>
</svg>
